<svg id="BG" xmlns="http://www.w3.org/2000/svg" viewBox="0 0 1214 941"><defs><style>.cls-1{fill:#204056;}.cls-2,.cls-3{fill:#4e768d;}.cls-2{opacity:0.2;}.cls-4{fill:#fff;}.cls-5{fill:#7a98a9;}</style></defs><title>diagram-boxmodel</title><rect class="cls-1" width="1214" height="941"/><rect class="cls-2" x="305.03" y="345.42" width="620.7" height="248.28"/><rect class="cls-2" x="367.1" y="407.49" width="496.56" height="124.14"/><path class="cls-3" d="M1035,221.28h-7.45v1.24H1035v-1.24h0Zm-14.9,0h-7.45v1.24h7.45v-1.24h0Zm-14.9,0h-7.45v1.24h7.45v-1.24h0Zm-14.9,0h-7.45v1.24h7.45v-1.24h0Zm-14.9,0h-7.45v1.24h7.45v-1.24h0Zm-14.9,0H953v1.24h7.45v-1.24h0Zm-14.9,0h-7.45v1.24h7.45v-1.24h0Zm-14.9,0h-7.45v1.24h7.45v-1.24h0Zm-14.9,0h-7.45v1.24h7.45v-1.24h0Zm-14.9,0h-7.45v1.24h7.45v-1.24h0Zm-14.9,0h-7.45v1.24H886v-1.24h0Zm-14.9,0h-7.45v1.24h7.45v-1.24h0Zm-14.9,0h-7.45v1.24h7.45v-1.24h0Zm-14.9,0h-7.45v1.24h7.45v-1.24h0Zm-14.9,0H819v1.24h7.45v-1.24h0Zm-14.9,0h-7.45v1.24h7.45v-1.24h0Zm-14.9,0h-7.45v1.24h7.45v-1.24h0Zm-14.9,0h-7.45v1.24h7.45v-1.24h0Zm-14.9,0h-7.45v1.24h7.45v-1.24h0Zm-14.9,0h-7.45v1.24h7.45v-1.24h0Zm-14.9,0h-7.45v1.24H737v-1.24h0Zm-14.9,0h-7.45v1.24h7.45v-1.24h0Zm-14.9,0h-7.45v1.24h7.45v-1.24h0Zm-14.9,0H684.9v1.24h7.45v-1.24h0Zm-14.9,0H670v1.24h7.45v-1.24h0Zm-14.9,0H655.1v1.24h7.45v-1.24h0Zm-14.9,0h-7.45v1.24h7.45v-1.24h0Zm-14.9,0h-7.45v1.24h7.45v-1.24h0Zm-14.9,0h-7.45v1.24h7.45v-1.24h0Zm-14.9,0h-7.45v1.24H603v-1.24h0Zm-14.9,0h-7.45v1.24h7.45v-1.24h0Zm-14.9,0h-7.45v1.24h7.45v-1.24h0Zm-14.9,0h-7.45v1.24h7.45v-1.24h0Zm-14.9,0h-7.45v1.24h7.45v-1.24h0Zm-14.9,0H521v1.24h7.45v-1.24h0Zm-14.9,0h-7.45v1.24h7.45v-1.24h0Zm-14.9,0h-7.45v1.24h7.45v-1.24h0Zm-14.9,0h-7.45v1.24h7.45v-1.24h0Zm-14.9,0h-7.45v1.24h7.45v-1.24h0Zm-14.9,0h-7.45v1.24H454v-1.24h0Zm-14.9,0h-7.45v1.24h7.45v-1.24h0Zm-14.9,0h-7.45v1.24h7.45v-1.24h0Zm-14.9,0h-7.45v1.24h7.45v-1.24h0Zm-14.9,0H387v1.24h7.45v-1.24h0Zm-14.9,0h-7.45v1.24h7.45v-1.24h0Zm-14.9,0h-7.45v1.24h7.45v-1.24h0Zm-14.9,0h-7.45v1.24h7.45v-1.24h0Zm-14.9,0h-7.45v1.24h7.45v-1.24h0Zm-14.9,0h-7.45v1.24h7.45v-1.24h0Zm-14.9,0h-7.45v1.24H305v-1.24h0Zm-14.9,0h-7.45v1.24h7.45v-1.24h0Zm-14.9,0h-7.45v1.24h7.45v-1.24h0Zm-14.9,0h-7.45v1.24h7.45v-1.24h0Zm-14.9,0H238v1.24h7.45v-1.24h0Zm-14.9,0H223.1v1.24h7.45v-1.24h0Zm-14.9,0H208.2v1.24h7.45v-1.24h0Zm-14.9,0H193.3v1.24h7.45v-1.24h0Zm-14.9,0h-5v1.24h0v1.24h1.24v-1.24h3.72v-1.24h0Zm-3.72,9.93h-1.24v7.45h1.24v-7.45h0Zm0,14.9h-1.24v7.45h1.24V246.1h0Zm0,14.9h-1.24v7.45h1.24V261h0Zm0,14.9h-1.24v7.45h1.24V275.9h0Zm0,14.9h-1.24v7.45h1.24v-7.45h0Zm0,14.9h-1.24v7.45h1.24v-7.45h0Zm0,14.9h-1.24V328h1.24v-7.45h0Zm0,14.9h-1.24v7.45h1.24v-7.45h0Zm0,14.9h-1.24v7.45h1.24v-7.45h0Zm0,14.9h-1.24v7.45h1.24v-7.45h0Zm0,14.9h-1.24v7.45h1.24v-7.45h0Zm0,14.9h-1.24v7.45h1.24v-7.45h0Zm0,14.9h-1.24v7.45h1.24V410h0Zm0,14.9h-1.24v7.45h1.24v-7.45h0Zm0,14.9h-1.24v7.45h1.24v-7.45h0Zm0,14.9h-1.24v7.45h1.24v-7.45h0Zm0,14.9h-1.24V477h1.24v-7.45h0Zm0,14.9h-1.24v7.45h1.24v-7.45h0Zm0,14.9h-1.24v7.45h1.24v-7.45h0Zm0,14.9h-1.24v7.45h1.24v-7.45h0Zm0,14.9h-1.24v7.45h1.24v-7.45h0Zm0,14.9h-1.24v7.45h1.24V544h0Zm0,14.9h-1.24v7.45h1.24v-7.45h0Zm0,14.9h-1.24v7.45h1.24v-7.45h0Zm0,14.9h-1.24v7.45h1.24v-7.45h0Zm0,14.9h-1.24v7.45h1.24v-7.45h0Zm0,14.9h-1.24V626h1.24v-7.45h0Zm0,14.9h-1.24v7.45h1.24v-7.45h0Zm0,14.9h-1.24v7.45h1.24v-7.45h0Zm0,14.9h-1.24v7.45h1.24v-7.45h0Zm0,14.9h-1.24v7.45h1.24v-7.45h0Zm0,14.9h-1.24v7.45h1.24V693h0Zm0,14.9h-1.24v7.45h1.24v-7.45h0Zm11.17,8.69h-7.45v1.24h7.45V716.6h0Zm14.9,0h-7.45v1.24h7.45V716.6h0Zm14.9,0h-7.45v1.24h7.45V716.6h0Zm14.9,0h-7.45v1.24H238V716.6h0Zm14.9,0h-7.45v1.24h7.45V716.6h0Zm14.9,0h-7.45v1.24h7.45V716.6h0Zm14.9,0h-7.45v1.24h7.45V716.6h0Zm14.9,0h-7.45v1.24h7.45V716.6h0Zm14.9,0H305v1.24h7.45V716.6h0Zm14.9,0h-7.45v1.24h7.45V716.6h0Zm14.9,0h-7.45v1.24h7.45V716.6h0Zm14.9,0h-7.45v1.24h7.45V716.6h0Zm14.9,0h-7.45v1.24h7.45V716.6h0Zm14.9,0h-7.45v1.24H387V716.6h0Zm14.9,0h-7.45v1.24h7.45V716.6h0Zm14.9,0h-7.45v1.24h7.45V716.6h0Zm14.9,0H424.2v1.24h7.45V716.6h0Zm14.9,0H439.1v1.24h7.45V716.6h0Zm14.9,0H454v1.24h7.45V716.6h0Zm14.9,0h-7.45v1.24h7.45V716.6h0Zm14.9,0h-7.45v1.24h7.45V716.6h0Zm14.9,0h-7.45v1.24h7.45V716.6h0Zm14.9,0h-7.45v1.24H521V716.6h0Zm14.9,0h-7.45v1.24h7.45V716.6h0Zm14.9,0h-7.45v1.24h7.45V716.6h0Zm14.9,0h-7.45v1.24h7.45V716.6h0Zm14.9,0h-7.45v1.24h7.45V716.6h0Zm14.9,0h-7.45v1.24h7.45V716.6h0Zm14.9,0H603v1.24h7.45V716.6h0Zm14.9,0h-7.45v1.24h7.45V716.6h0Zm14.9,0h-7.45v1.24h7.45V716.6h0Zm14.9,0h-7.45v1.24h7.45V716.6h0Zm14.9,0h-7.45v1.24H670V716.6h0Zm14.9,0h-7.45v1.24h7.45V716.6h0Zm14.9,0h-7.45v1.24h7.45V716.6h0Zm14.9,0h-7.45v1.24h7.45V716.6h0Zm14.9,0h-7.45v1.24h7.45V716.6h0Zm14.9,0H737v1.24h7.45V716.6h0Zm14.9,0h-7.45v1.24h7.45V716.6h0Zm14.9,0h-7.45v1.24h7.45V716.6h0Zm14.9,0h-7.45v1.24h7.45V716.6h0Zm14.9,0h-7.45v1.24h7.45V716.6h0Zm14.9,0h-7.45v1.24H819V716.6h0Zm14.9,0h-7.45v1.24h7.45V716.6h0Zm14.9,0h-7.45v1.24h7.45V716.6h0Zm14.9,0h-7.45v1.24h7.45V716.6h0Zm14.9,0h-7.45v1.24h7.45V716.6h0Zm14.9,0H886v1.24h7.45V716.6h0Zm14.9,0H900.9v1.24h7.45V716.6h0Zm14.9,0H915.8v1.24h7.45V716.6h0Zm14.9,0h-7.45v1.24h7.45V716.6h0Zm14.9,0h-7.45v1.24H953V716.6h0Zm14.9,0h-7.45v1.24h7.45V716.6h0Zm14.9,0h-7.45v1.24h7.45V716.6h0Zm14.9,0h-7.45v1.24h7.45V716.6h0Zm14.9,0h-7.45v1.24h7.45V716.6h0Zm14.9,0h-7.45v1.24h7.45V716.6h0Zm14.9,0H1035v1.24h7.45V716.6h0Zm7.45-6.21h-1.24v7.45h1.24v-7.45h0Zm0-14.9h-1.24v7.45h1.24v-7.45h0Zm0-14.9h-1.24V688h1.24v-7.45h0Zm0-14.9h-1.24v7.45h1.24V665.7h0Zm0-14.9h-1.24v7.45h1.24V650.8h0Zm0-14.9h-1.24v7.45h1.24V635.9h0Zm0-14.9h-1.24v7.45h1.24V621h0Zm0-14.9h-1.24v7.45h1.24v-7.45h0Zm0-14.9h-1.24v7.45h1.24v-7.45h0Zm0-14.9h-1.24v7.45h1.24v-7.45h0Zm0-14.9h-1.24v7.45h1.24v-7.45h0Zm0-14.9h-1.24V554h1.24v-7.45h0Zm0-14.9h-1.24v7.45h1.24v-7.45h0Zm0-14.9h-1.24v7.45h1.24v-7.45h0Zm0-14.9h-1.24v7.45h1.24v-7.45h0Zm0-14.9h-1.24v7.45h1.24v-7.45h0Zm0-14.9h-1.24v7.45h1.24V472h0Zm0-14.9h-1.24v7.45h1.24v-7.45h0Zm0-14.9h-1.24v7.45h1.24v-7.45h0Zm0-14.9h-1.24v7.45h1.24v-7.45h0Zm0-14.9h-1.24v7.45h1.24v-7.45h0Zm0-14.9h-1.24V405h1.24v-7.45h0Zm0-14.9h-1.24v7.45h1.24v-7.45h0Zm0-14.9h-1.24v7.45h1.24v-7.45h0Zm0-14.9h-1.24v7.45h1.24v-7.45h0Zm0-14.9h-1.24v7.45h1.24V338h0Zm0-14.9h-1.24v7.45h1.24v-7.45h0Zm0-14.9h-1.24v7.45h1.24v-7.45h0Zm0-14.9h-1.24v7.45h1.24v-7.45h0Zm0-14.9h-1.24v7.45h1.24v-7.45h0Zm0-14.9h-1.24v7.45h1.24v-7.45h0Zm0-14.9h-1.24V256h1.24v-7.45h0Zm0-14.9h-1.24v7.45h1.24v-7.45h0Zm0-12.41h-7.45v1.24h6.21v3.72h1.24v-5h0Z"/><path class="cls-3" d="M243,283.35V655.77H987.8V283.35H243ZM925.73,593.7H305V345.42h620.7V593.7Z"/><path class="cls-3" d="M848.76,407.49h-7.45v1.24h7.45v-1.24h0Zm-14.9,0h-7.45v1.24h7.45v-1.24h0Zm-14.9,0h-7.45v1.24H819v-1.24h0Zm-14.9,0h-7.45v1.24h7.45v-1.24h0Zm-14.9,0h-7.45v1.24h7.45v-1.24h0Zm-14.9,0h-7.45v1.24h7.45v-1.24h0Zm-14.9,0h-7.45v1.24h7.45v-1.24h0Zm-14.9,0H737v1.24h7.45v-1.24h0Zm-14.9,0h-7.45v1.24h7.45v-1.24h0Zm-14.9,0h-7.45v1.24h7.45v-1.24h0Zm-14.9,0h-7.45v1.24h7.45v-1.24h0Zm-14.9,0h-7.45v1.24h7.45v-1.24h0Zm-14.9,0h-7.45v1.24H670v-1.24h0Zm-14.9,0h-7.45v1.24h7.45v-1.24h0Zm-14.9,0h-7.45v1.24h7.45v-1.24h0Zm-14.9,0h-7.45v1.24h7.45v-1.24h0Zm-14.9,0H603v1.24h7.45v-1.24h0Zm-14.9,0h-7.45v1.24h7.45v-1.24h0Zm-14.9,0h-7.45v1.24h7.45v-1.24h0Zm-14.9,0h-7.45v1.24h7.45v-1.24h0Zm-14.9,0h-7.45v1.24h7.45v-1.24h0Zm-14.9,0h-7.45v1.24h7.45v-1.24h0Zm-14.9,0h-7.45v1.24H521v-1.24h0Zm-14.9,0h-7.45v1.24h7.45v-1.24h0Zm-14.9,0h-7.45v1.24h7.45v-1.24h0Zm-14.9,0h-7.45v1.24h7.45v-1.24h0Zm-14.9,0H454v1.24h7.45v-1.24h0Zm-14.9,0H439.1v1.24h7.45v-1.24h0Zm-14.9,0H424.2v1.24h7.45v-1.24h0Zm-14.9,0h-7.45v1.24h7.45v-1.24h0Zm-14.9,0h-7.45v1.24h7.45v-1.24h0Zm-14.9,0h-7.45v1.24H387v-1.24h0Zm-14.9,0h-5v1.24h0V410h1.24v-1.24h3.72v-1.24h0Zm-3.72,9.93H367.1v7.45h1.24v-7.45h0Zm0,14.9H367.1v7.45h1.24v-7.45h0Zm0,14.9H367.1v7.45h1.24v-7.45h0Zm0,14.9H367.1v7.45h1.24v-7.45h0Zm0,14.9H367.1v7.45h1.24V477h0Zm0,14.9H367.1v7.45h1.24V491.9h0Zm0,14.9H367.1v7.45h1.24V506.8h0Zm0,14.9H367.1v7.45h1.24V521.7h0Zm11.17,8.69h-7.45v1.24h7.45v-1.24h0Zm14.9,0H387v1.24h7.45v-1.24h0Zm14.9,0h-7.45v1.24h7.45v-1.24h0Zm14.9,0h-7.45v1.24h7.45v-1.24h0Zm14.9,0h-7.45v1.24h7.45v-1.24h0Zm14.9,0h-7.45v1.24H454v-1.24h0Zm14.9,0h-7.45v1.24h7.45v-1.24h0Zm14.9,0h-7.45v1.24h7.45v-1.24h0Zm14.9,0h-7.45v1.24h7.45v-1.24h0Zm14.9,0h-7.45v1.24h7.45v-1.24h0Zm14.9,0H521v1.24h7.45v-1.24h0Zm14.9,0h-7.45v1.24h7.45v-1.24h0Zm14.9,0h-7.45v1.24h7.45v-1.24h0Zm14.9,0h-7.45v1.24h7.45v-1.24h0Zm14.9,0h-7.45v1.24h7.45v-1.24h0Zm14.9,0h-7.45v1.24H603v-1.24h0Zm14.9,0h-7.45v1.24h7.45v-1.24h0Zm14.9,0h-7.45v1.24h7.45v-1.24h0Zm14.9,0h-7.45v1.24h7.45v-1.24h0Zm14.9,0H655.1v1.24h7.45v-1.24h0Zm14.9,0H670v1.24h7.45v-1.24h0Zm14.9,0H684.9v1.24h7.45v-1.24h0Zm14.9,0h-7.45v1.24h7.45v-1.24h0Zm14.9,0h-7.45v1.24h7.45v-1.24h0Zm14.9,0h-7.45v1.24H737v-1.24h0Zm14.9,0h-7.45v1.24h7.45v-1.24h0Zm14.9,0h-7.45v1.24h7.45v-1.24h0Zm14.9,0h-7.45v1.24h7.45v-1.24h0Zm14.9,0h-7.45v1.24h7.45v-1.24h0Zm14.9,0h-7.45v1.24h7.45v-1.24h0Zm14.9,0H819v1.24h7.45v-1.24h0Zm14.9,0h-7.45v1.24h7.45v-1.24h0Zm14.9,0h-7.45v1.24h7.45v-1.24h0Zm7.45-6.21h-1.24v7.45h1.24v-7.45h0Zm0-14.9h-1.24v7.45h1.24v-7.45h0Zm0-14.9h-1.24v7.45h1.24v-7.45h0Zm0-14.9h-1.24v7.45h1.24v-7.45h0Zm0-14.9h-1.24V472h1.24v-7.45h0Zm0-14.9h-1.24v7.45h1.24v-7.45h0Zm0-14.9h-1.24v7.45h1.24V434.8h0Zm0-14.9h-1.24v7.45h1.24V419.9h0Zm0-12.41h-7.45v1.24h6.21v3.72h1.24v-5h0Z"/><path class="cls-4" d="M578.67,477.1a6.48,6.48,0,0,1-3.68-1,6.37,6.37,0,0,1-2.32-2.71,8.9,8.9,0,0,1-.76-3.73,9.45,9.45,0,0,1,.45-3,8,8,0,0,1,1.29-2.45,5.85,5.85,0,0,1,2.15-1.69,6.79,6.79,0,0,1,2.93-.62,8.11,8.11,0,0,1,2.1.28,4.57,4.57,0,0,1,1.55.67l-0.52,1.24a6.53,6.53,0,0,0-3.25-.77A4.32,4.32,0,0,0,575,465a7.3,7.3,0,0,0-1.33,4.58A6.94,6.94,0,0,0,575,474a4.35,4.35,0,0,0,3.62,1.69,8.67,8.67,0,0,0,3.44-.8l0.25,1.19a4.65,4.65,0,0,1-1.63.73A7.87,7.87,0,0,1,578.67,477.1Z"/><path class="cls-4" d="M591.32,477.1a6.2,6.2,0,0,1-3.5-1,6.4,6.4,0,0,1-2.31-2.71,9.11,9.11,0,0,1-.79-3.87,9.63,9.63,0,0,1,.46-3,7.26,7.26,0,0,1,1.31-2.41,5.92,5.92,0,0,1,2.12-1.6,6.66,6.66,0,0,1,2.81-.58,6.12,6.12,0,0,1,5.82,3.71,9.49,9.49,0,0,1,.75,3.87,9.34,9.34,0,0,1-.77,3.89,6.26,6.26,0,0,1-2.31,2.71A6.41,6.41,0,0,1,591.32,477.1Zm0.12-1.32a4.29,4.29,0,0,0,2.7-.85,4.79,4.79,0,0,0,1.6-2.23,9.34,9.34,0,0,0,.5-3.19A7.8,7.8,0,0,0,595,465a4.15,4.15,0,0,0-3.65-1.72,4.35,4.35,0,0,0-2.73.86,4.93,4.93,0,0,0-1.65,2.25,9.1,9.1,0,0,0-.52,3.19,7.42,7.42,0,0,0,1.27,4.48A4.27,4.27,0,0,0,591.44,475.78Z"/><path class="cls-4" d="M601.26,476.78V462.16h1.44l0.23,2.25a5.48,5.48,0,0,1,2.11-1.85,6.23,6.23,0,0,1,2.86-.67,4.62,4.62,0,0,1,3.71,1.39,6.74,6.74,0,0,1,1.19,4.43v9.07h-1.67V467a4.41,4.41,0,0,0-.83-2.8,3.19,3.19,0,0,0-2.49-.85,5.06,5.06,0,0,0-3.25,1A4.28,4.28,0,0,0,603,466.9c0,0.42-.05.85-0.05,1.31v8.57h-1.67Z"/><path class="cls-4" d="M620.74,477.08a3.74,3.74,0,0,1-2.69-.83,3.67,3.67,0,0,1-.85-2.71V463.38h-2.07l0.12-1,2-.19,0.44-3.35,1.16-.08v3.4h4.27v1.21h-4.27v9.81a3.07,3.07,0,0,0,.51,2.07,2.43,2.43,0,0,0,1.79.53,8.74,8.74,0,0,0,2.05-.31l0.07,1.28A13.8,13.8,0,0,1,620.74,477.08Z"/><path class="cls-4" d="M631.56,477.1a6.07,6.07,0,0,1-4.81-2,8,8,0,0,1-1.78-5.49,8.4,8.4,0,0,1,1.74-5.48,5.74,5.74,0,0,1,4.5-2.2,5.15,5.15,0,0,1,4.13,1.84,7.38,7.38,0,0,1,1.56,4.93c0,0.08,0,.24,0,0.49s0,0.42,0,.51H626.71a7,7,0,0,0,1.36,4.46,4.3,4.3,0,0,0,3.52,1.65,8.27,8.27,0,0,0,2.48-.33,13,13,0,0,0,2.2-.95l0.28,1.24A9.36,9.36,0,0,1,631.56,477.1Zm-4.77-8.76h8.32a5.82,5.82,0,0,0-1.05-3.74,3.53,3.53,0,0,0-2.89-1.3,3.72,3.72,0,0,0-3,1.39A6.55,6.55,0,0,0,626.78,468.34Z"/><path class="cls-4" d="M640.21,476.78V462.16h1.44l0.23,2.25a5.48,5.48,0,0,1,2.11-1.85,6.24,6.24,0,0,1,2.86-.67,4.62,4.62,0,0,1,3.71,1.39,6.75,6.75,0,0,1,1.19,4.43v9.07h-1.67V467a4.41,4.41,0,0,0-.83-2.8,3.19,3.19,0,0,0-2.49-.85,5.07,5.07,0,0,0-3.25,1,4.29,4.29,0,0,0-1.58,2.59q-0.05.63-.05,1.31v8.57h-1.67Z"/><path class="cls-4" d="M659.69,477.08a3.74,3.74,0,0,1-2.69-.83,3.67,3.67,0,0,1-.85-2.71V463.38h-2.07l0.12-1,2-.19,0.44-3.35,1.16-.08v3.4H662v1.21h-4.27v9.81a3.07,3.07,0,0,0,.51,2.07,2.43,2.43,0,0,0,1.79.53,8.74,8.74,0,0,0,2.05-.31l0.07,1.28A13.81,13.81,0,0,1,659.69,477.08Z"/><path class="cls-5" d="M568,385.25a4.8,4.8,0,0,1-2.51-.65,4.49,4.49,0,0,1-1.67-1.68v7.61l-2.43.27V370.28h2.43v2a5.16,5.16,0,0,1,1.71-1.77,4.39,4.39,0,0,1,2.41-.68,5.31,5.31,0,0,1,5.14,3,9.86,9.86,0,0,1,1,4.51q0,4.17-2,6.35A5.21,5.21,0,0,1,568,385.25Zm-4.2-7.73q0,5.87,4.11,5.87,3.69,0,3.69-5.87,0-3.25-1-4.53a3.29,3.29,0,0,0-2.74-1.27q-3.41,0-3.95,3.95A13,13,0,0,0,563.78,377.51Z"/><path class="cls-5" d="M587,374.83q0-3.13-2.65-3.13a14.67,14.67,0,0,0-2.77.29,11.59,11.59,0,0,0-2.13.56l-0.57-1.79a16.44,16.44,0,0,1,5.19-.92,6.31,6.31,0,0,1,3.89,1.11,4,4,0,0,1,1.47,3.41v10.55h-2l-0.32-1.69a6.88,6.88,0,0,1-2.19,1.45,6.59,6.59,0,0,1-2.62.58,4.41,4.41,0,0,1-3.08-1.11,4,4,0,0,1-1.23-3.15,3.21,3.21,0,0,1,1.6-3,7,7,0,0,1,2.3-.91q1.22-.25,3.18-0.49l1.95-.23v-1.55Zm0,6.81v-3.73l-2,.28a16.17,16.17,0,0,0-2.88.59,2.36,2.36,0,0,0-1.79,2.28,2.41,2.41,0,0,0,.64,1.76,2.35,2.35,0,0,0,1.76.65A5.74,5.74,0,0,0,587,381.65Z"/><path class="cls-5" d="M603.74,372.3v-8l2.43-.27v20.87h-2.43v-2.27a4.61,4.61,0,0,1-4.19,2.6,4.93,4.93,0,0,1-4.5-2.21,10.18,10.18,0,0,1-1.41-5.56q0-4,2.05-6.13a5.12,5.12,0,0,1,3.87-1.49,4.81,4.81,0,0,1,2.69.68A3.86,3.86,0,0,1,603.74,372.3Zm0,5.21q0-3.41-1-4.61a3.57,3.57,0,0,0-2.88-1.19,3.22,3.22,0,0,0-3.35,2.56,12,12,0,0,0-.41,3.37q0,5.74,3.76,5.73T603.74,377.51Z"/><path class="cls-5" d="M620.13,372.3v-8l2.43-.27v20.87h-2.43v-2.27a4.61,4.61,0,0,1-4.19,2.6,4.93,4.93,0,0,1-4.5-2.21,10.18,10.18,0,0,1-1.41-5.56,8.44,8.44,0,0,1,2.05-6.13,5.13,5.13,0,0,1,3.87-1.49,4.81,4.81,0,0,1,2.69.68A3.87,3.87,0,0,1,620.13,372.3Zm0,5.21q0-3.41-1-4.61a3.57,3.57,0,0,0-2.88-1.19,3.22,3.22,0,0,0-3.35,2.56,12,12,0,0,0-.41,3.37q0,5.74,3.76,5.73T620.13,377.51Z"/><path class="cls-5" d="M628.22,372.15v-1.87h6.6V383H639v1.87H627.75V383h4.64V372.15h-4.17Zm3.77-5.72v-1.32a1,1,0,0,1,.54-0.85,1.75,1.75,0,0,1,2.15,0,1,1,0,0,1,.54.85v1.32a1,1,0,0,1-.54.85,1.76,1.76,0,0,1-2.15,0A1,1,0,0,1,632,366.43Z"/><path class="cls-5" d="M650.71,369.84q4.55,0,4.55,5.76v9.31h-2.43v-9a10.65,10.65,0,0,0-.16-2.21,3,3,0,0,0-.48-1.09,2.64,2.64,0,0,0-2.23-.88,4,4,0,0,0-2.64.91,3,3,0,0,0-1.08,2.4v9.89h-2.43V370.28H646l0.13,1.59A5.2,5.2,0,0,1,650.71,369.84Z"/><path class="cls-5" d="M669.43,382.11a4.44,4.44,0,0,1-1.6,2,4.27,4.27,0,0,1-2.56.83,5.19,5.19,0,0,1-4.39-2.15,8.52,8.52,0,0,1-1.61-5.26q0-4.16,2.08-6.21a5.55,5.55,0,0,1,4-1.44,4.54,4.54,0,0,1,4,2.43l0.08-2H672q-0.12,3.27-.12,8.68v3.92q0,4.72-2.05,6.43a8.25,8.25,0,0,1-4.45,1.57,30.1,30.1,0,0,1-3.47.17l-0.2-1.87a17.57,17.57,0,0,0,4.17-.35,5.77,5.77,0,0,0,1.83-.77,3.89,3.89,0,0,0,1-1.11,7.74,7.74,0,0,0,.76-3.88v-1Zm-1.15-9.25a2.94,2.94,0,0,0-1.11-.84,3.87,3.87,0,0,0-1.61-.31A3.79,3.79,0,0,0,664,372a3.22,3.22,0,0,0-1.75,2,9,9,0,0,0-.49,2.89,14.36,14.36,0,0,0,.12,2.17,5.19,5.19,0,0,0,1.12,2.61,3.08,3.08,0,0,0,2.49,1,3.43,3.43,0,0,0,3.48-2.29,6.85,6.85,0,0,0,.51-2.59,18.1,18.1,0,0,0-.1-2.14,7.69,7.69,0,0,0-.37-1.57A4.39,4.39,0,0,0,668.28,372.86Z"/><path class="cls-5" d="M576.36,248a3.13,3.13,0,0,1,3.08-2.27q2.79,0,3.15,4,0.07,0.75.07,1.68v9.37h-2.23v-9.09a8.89,8.89,0,0,0-.35-3.26,1.56,1.56,0,0,0-.63-0.74,1.8,1.8,0,0,0-.63-0.11,1.72,1.72,0,0,0-1.67,1.31,8.77,8.77,0,0,0-.32,2.83v9.07h-2v-8.92q0-2.95-.69-3.83a1.24,1.24,0,0,0-1-.45,1.44,1.44,0,0,0-1.15.59,4.6,4.6,0,0,0-.89,3v9.61h-2.23V246.14h1.93l0.15,1.93a4.83,4.83,0,0,1,1.07-1.69,2.29,2.29,0,0,1,1.7-.69,2.6,2.6,0,0,1,1.73.6A3.15,3.15,0,0,1,576.36,248Z"/><path class="cls-5" d="M595.16,250.69q0-3.13-2.65-3.13a14.68,14.68,0,0,0-2.77.29,11.57,11.57,0,0,0-2.13.56L587,246.62a16.44,16.44,0,0,1,5.19-.92,6.31,6.31,0,0,1,3.89,1.11,4,4,0,0,1,1.47,3.41v10.55h-2l-0.32-1.69a6.87,6.87,0,0,1-2.19,1.45,6.6,6.6,0,0,1-2.62.58,4.41,4.41,0,0,1-3.08-1.11,4,4,0,0,1-1.23-3.15,3.21,3.21,0,0,1,1.6-3A7,7,0,0,1,590,253q1.22-.25,3.18-0.49l1.95-.23v-1.55Zm0,6.81v-3.73l-2,.28a16.17,16.17,0,0,0-2.88.59,2.36,2.36,0,0,0-1.79,2.28,2.41,2.41,0,0,0,.64,1.76,2.35,2.35,0,0,0,1.76.65A5.75,5.75,0,0,0,595.16,257.51Z"/><path class="cls-5" d="M607.47,260.77H605V246.14h2l0.2,2.71a6.07,6.07,0,0,1,2.35-2.35,6.71,6.71,0,0,1,3.29-.8H614V248h-1.52a5.49,5.49,0,0,0-3.69,1.17,4.38,4.38,0,0,0-1.36,3.51v8.13Z"/><path class="cls-5" d="M628.46,258a4.44,4.44,0,0,1-1.6,2,4.27,4.27,0,0,1-2.56.83,5.19,5.19,0,0,1-4.39-2.15,8.52,8.52,0,0,1-1.61-5.26q0-4.16,2.08-6.21a5.55,5.55,0,0,1,4-1.44,4.54,4.54,0,0,1,4,2.43l0.08-2H631q-0.12,3.27-.12,8.68v3.92q0,4.72-2.05,6.43a8.25,8.25,0,0,1-4.45,1.57,30.11,30.11,0,0,1-3.47.17l-0.2-1.87a17.59,17.59,0,0,0,4.17-.35,5.77,5.77,0,0,0,1.83-.77,3.87,3.87,0,0,0,1-1.11,7.74,7.74,0,0,0,.76-3.88v-1Zm-1.15-9.25a3,3,0,0,0-1.11-.84,3.87,3.87,0,0,0-1.61-.31,3.8,3.8,0,0,0-1.61.32,3.22,3.22,0,0,0-1.75,2,9,9,0,0,0-.49,2.89,14.32,14.32,0,0,0,.12,2.17,5.19,5.19,0,0,0,1.12,2.61,3.07,3.07,0,0,0,2.49,1,3.44,3.44,0,0,0,3.48-2.29,6.85,6.85,0,0,0,.51-2.59,17.8,17.8,0,0,0-.1-2.14A7.62,7.62,0,0,0,628,250,4.39,4.39,0,0,0,627.31,248.72Z"/><path class="cls-5" d="M636.41,248v-1.87H643v12.76h4.19v1.87H635.94v-1.87h4.64V248h-4.17Zm3.77-5.72V241a1,1,0,0,1,.54-0.85,1.75,1.75,0,0,1,2.15,0,1,1,0,0,1,.54.85v1.32a1,1,0,0,1-.54.85,1.76,1.76,0,0,1-2.15,0A1,1,0,0,1,640.18,242.29Z"/><path class="cls-5" d="M658.91,245.7q4.55,0,4.55,5.76v9.31H661v-9a10.65,10.65,0,0,0-.16-2.21,3,3,0,0,0-.48-1.09,2.64,2.64,0,0,0-2.23-.88,4,4,0,0,0-2.64.91,3,3,0,0,0-1.08,2.4v9.89H652V246.14h2.23l0.13,1.59A5.2,5.2,0,0,1,658.91,245.7Z"/><path class="cls-4" d="M525,134.15v-20h-6.81v-1.6h15.51v1.6h-6.81v20H525Z"/><path class="cls-4" d="M536,134.15V112l1.8-.16v8a0.57,0.57,0,0,1,0,.13,0.91,0.91,0,0,0,0,.16l0,0.44a6.47,6.47,0,0,1,5.59-2.71q5.19,0,5.19,6.27v10h-1.79v-9.62a7,7,0,0,0-.83-3.89,3.3,3.3,0,0,0-2.92-1.2,5.39,5.39,0,0,0-3.46,1.1,4.56,4.56,0,0,0-1.7,2.83q0,0.58,0,1.73v9H536Z"/><path class="cls-4" d="M559.18,134.5a6.63,6.63,0,0,1-5.24-2.21,8.76,8.76,0,0,1-1.94-6,9.15,9.15,0,0,1,1.9-6,6.25,6.25,0,0,1,4.91-2.4,5.62,5.62,0,0,1,4.51,2,8,8,0,0,1,1.7,5.38q0,0.13,0,.53t0,0.56H553.9a7.63,7.63,0,0,0,1.48,4.87,4.7,4.7,0,0,0,3.84,1.8,9,9,0,0,0,2.71-.36,14.21,14.21,0,0,0,2.4-1l0.31,1.35A10.21,10.21,0,0,1,559.18,134.5ZM554,124.94H563a6.34,6.34,0,0,0-1.15-4.08,3.84,3.84,0,0,0-3.16-1.42,4.06,4.06,0,0,0-3.29,1.51A7.15,7.15,0,0,0,554,124.94Z"/><path class="cls-4" d="M575.86,134.15V112.5h5.91q4,0,5.88,1.34a4.69,4.69,0,0,1,1.85,4.07q0,0.32,0,.48t-0.07.63a3.37,3.37,0,0,1-.18.79,6.68,6.68,0,0,1-.39.79,3.34,3.34,0,0,1-.63.82,5.63,5.63,0,0,1-1,.71,6.16,6.16,0,0,1-1.35.59,5.27,5.27,0,0,1,3.48,1.82,5.38,5.38,0,0,1,1.21,3.51,5.68,5.68,0,0,1-1.82,4.48q-1.82,1.61-5.59,1.61h-7.33Zm1.86-12h5a9.73,9.73,0,0,0,2-.17,4.35,4.35,0,0,0,1.51-.62,2.71,2.71,0,0,0,1-1.27,5.34,5.34,0,0,0,.34-2,3.42,3.42,0,0,0-1.4-3.15,8.63,8.63,0,0,0-4.44-.88h-4v8.13Zm0,10.55h5q5.89,0,5.89-4.64a3.75,3.75,0,0,0-1.63-3.5,10.21,10.21,0,0,0-5.11-1h-4.15v9.12Z"/><path class="cls-4" d="M600.23,134.5a6.77,6.77,0,0,1-3.82-1.09,7,7,0,0,1-2.52-3,9.94,9.94,0,0,1-.87-4.23,10.45,10.45,0,0,1,.5-3.3,7.93,7.93,0,0,1,1.43-2.63,6.49,6.49,0,0,1,2.31-1.75,7.29,7.29,0,0,1,3.07-.63A6.67,6.67,0,0,1,606.7,122a10.33,10.33,0,0,1,.82,4.23,10.19,10.19,0,0,1-.84,4.25,6.84,6.84,0,0,1-2.52,3A7,7,0,0,1,600.23,134.5Zm0.13-1.44a4.69,4.69,0,0,0,2.95-.92,5.24,5.24,0,0,0,1.75-2.44,10.22,10.22,0,0,0,.55-3.48,8.51,8.51,0,0,0-1.31-5,4.53,4.53,0,0,0-4-1.88,4.76,4.76,0,0,0-3,.94,5.39,5.39,0,0,0-1.8,2.46,9.93,9.93,0,0,0-.57,3.48,8.09,8.09,0,0,0,1.39,4.89A4.66,4.66,0,0,0,600.36,133.06Z"/><path class="cls-4" d="M609.08,134.15l5.95-8.07-5.76-7.87h2l4.66,6.58,4.63-6.58h2.05l-5.75,7.93,5.86,8h-1.93l-4.84-6.76-4.83,6.76h-2Z"/><path class="cls-4" d="M632.64,134.15V112.5h2.62l8,18.29,7.8-18.29h2.52v21.65h-1.85V119.59l0.1-4.92-0.54,1.75-7.11,16.5h-2L635,116.37l-0.57-1.75,0.1,5v14.49h-1.85Z"/><path class="cls-4" d="M664.85,134.5a6.77,6.77,0,0,1-3.82-1.09,7,7,0,0,1-2.52-3,9.94,9.94,0,0,1-.87-4.23,10.45,10.45,0,0,1,.5-3.3,7.93,7.93,0,0,1,1.43-2.63,6.49,6.49,0,0,1,2.31-1.75,7.29,7.29,0,0,1,3.07-.63,6.67,6.67,0,0,1,6.35,4.05,10.33,10.33,0,0,1,.82,4.23,10.19,10.19,0,0,1-.84,4.25,6.84,6.84,0,0,1-2.52,3A7,7,0,0,1,664.85,134.5Zm0.13-1.44a4.69,4.69,0,0,0,2.95-.92,5.24,5.24,0,0,0,1.75-2.44,10.22,10.22,0,0,0,.55-3.48,8.51,8.51,0,0,0-1.31-5,4.53,4.53,0,0,0-4-1.88,4.76,4.76,0,0,0-3,.94,5.39,5.39,0,0,0-1.8,2.46,9.93,9.93,0,0,0-.57,3.48,8.09,8.09,0,0,0,1.39,4.89A4.66,4.66,0,0,0,665,133.06Z"/><path class="cls-4" d="M681.71,134.49a6,6,0,0,1-5-2.21,9.48,9.48,0,0,1-1.78-6.11,9.22,9.22,0,0,1,1.84-6,5.92,5.92,0,0,1,4.85-2.29,7.44,7.44,0,0,1,3,.64,4.63,4.63,0,0,1,2.25,2V112l1.75-.16v22.29h-1.5l-0.26-2.4a5.32,5.32,0,0,1-2.25,2A6.56,6.56,0,0,1,681.71,134.49Zm0-1.43a5.37,5.37,0,0,0,2.37-.49,4.08,4.08,0,0,0,1.63-1.4,6.54,6.54,0,0,0,.91-2.07,10.52,10.52,0,0,0,.3-2.6q0-7.11-5.24-7.11a4,4,0,0,0-2.18.59,4.22,4.22,0,0,0-1.49,1.59,8.23,8.23,0,0,0-.81,2.17,11.27,11.27,0,0,0-.26,2.47,13.08,13.08,0,0,0,.16,2.1,8.53,8.53,0,0,0,.52,1.87,5.61,5.61,0,0,0,.9,1.52,3.83,3.83,0,0,0,1.35,1A4.37,4.37,0,0,0,681.67,133.06Z"/><path class="cls-4" d="M699.36,134.5a6.63,6.63,0,0,1-5.24-2.21,8.76,8.76,0,0,1-1.94-6,9.15,9.15,0,0,1,1.9-6,6.25,6.25,0,0,1,4.91-2.4,5.62,5.62,0,0,1,4.51,2,8,8,0,0,1,1.7,5.38q0,0.13,0,.53t0,0.56h-11.1a7.63,7.63,0,0,0,1.48,4.87,4.7,4.7,0,0,0,3.84,1.8,9,9,0,0,0,2.71-.36,14.21,14.21,0,0,0,2.4-1l0.31,1.35A10.21,10.21,0,0,1,699.36,134.5Zm-5.21-9.56h9.08a6.34,6.34,0,0,0-1.15-4.08,3.84,3.84,0,0,0-3.16-1.42,4.06,4.06,0,0,0-3.29,1.51A7.15,7.15,0,0,0,694.15,124.94Z"/><path class="cls-4" d="M712.82,134.49a4.08,4.08,0,0,1-2.94-.91,4,4,0,0,1-.93-3V112l1.77-.15v18.65a2.91,2.91,0,0,0,.53,2,2.13,2.13,0,0,0,1.61.55,9.13,9.13,0,0,0,2.18-.33l0.07,1.4A10.17,10.17,0,0,1,712.82,134.49Z"/><path class="cls-1" d="M572.16,311.47a4.85,4.85,0,0,1,4.43-2.45,4.79,4.79,0,0,1,4.34,2.13,9.69,9.69,0,0,1,1.38,5.36q0,4.23-2,6.36a5.09,5.09,0,0,1-3.92,1.55,4.32,4.32,0,0,1-2.5-.61,8.32,8.32,0,0,1-1.73-1.73l0,2h-2.4v-20.6l2.43-.27v8.25Zm0.09,7a5.73,5.73,0,0,0,1.12,2.95,3.63,3.63,0,0,0,6.05-1.48,9,9,0,0,0,.44-2.81,20.52,20.52,0,0,0-.09-2.25,5.71,5.71,0,0,0-1-3,3.13,3.13,0,0,0-2.63-1.09,3.39,3.39,0,0,0-3.65,2.88,11.28,11.28,0,0,0-.28,2.57A19.85,19.85,0,0,0,572.25,318.51Z"/><path class="cls-1" d="M596.8,311.15a9.1,9.1,0,0,1,1.59,5.57,8.58,8.58,0,0,1-1.72,5.57,5.68,5.68,0,0,1-4.67,2.13,6.3,6.3,0,0,1-2.8-.6,5.24,5.24,0,0,1-2-1.65,9.2,9.2,0,0,1-1.53-5.52,8.55,8.55,0,0,1,1.69-5.51,5.76,5.76,0,0,1,4.77-2.11A5.45,5.45,0,0,1,596.8,311.15Zm-4.8,11.4a3.44,3.44,0,0,0,3.47-2.53,8.14,8.14,0,0,0,.49-2.79,18.11,18.11,0,0,0-.11-2.23,5.9,5.9,0,0,0-1.15-3,3.24,3.24,0,0,0-2.7-1.15,3.39,3.39,0,0,0-3.39,2.59,8.83,8.83,0,0,0-.48,2.91,10.2,10.2,0,0,0,.84,4.43A3.06,3.06,0,0,0,592,322.55Z"/><path class="cls-1" d="M607.47,324.09H605V309.46h2l0.2,2.71a6.07,6.07,0,0,1,2.35-2.35,6.71,6.71,0,0,1,3.29-.8H614v2.25h-1.52a5.49,5.49,0,0,0-3.69,1.17,4.38,4.38,0,0,0-1.36,3.51v8.13Z"/><path class="cls-1" d="M628.33,311.47v-8l2.43-.27v20.87h-2.43v-2.27a4.61,4.61,0,0,1-4.19,2.6,4.94,4.94,0,0,1-4.5-2.21,10.18,10.18,0,0,1-1.41-5.56q0-4,2.05-6.13a5.12,5.12,0,0,1,3.87-1.49,4.81,4.81,0,0,1,2.69.68A3.86,3.86,0,0,1,628.33,311.47Zm0,5.21q0-3.41-1-4.61a3.57,3.57,0,0,0-2.88-1.19,3.22,3.22,0,0,0-3.35,2.56,12,12,0,0,0-.41,3.37q0,5.74,3.76,5.73T628.33,316.68Z"/><path class="cls-1" d="M638.46,323.4a6.11,6.11,0,0,1-2.27-2.75,9.79,9.79,0,0,1-.74-3.9,10.47,10.47,0,0,1,.69-3.9,6.47,6.47,0,0,1,2.05-2.79,4.8,4.8,0,0,1,3-1.06,5.09,5.09,0,0,1,4.53,2.12,9.07,9.07,0,0,1,1.44,5.21v0.81H637.9A7.23,7.23,0,0,0,639,321a3.52,3.52,0,0,0,3.14,1.57,11.19,11.19,0,0,0,3.91-1.52l0.8,1.65a6.39,6.39,0,0,1-4.73,1.73A6.48,6.48,0,0,1,638.46,323.4Zm6.39-8q-0.27-4.49-3.15-4.49-3.26,0-3.72,4.49h6.87Z"/><path class="cls-1" d="M656.64,324.09h-2.43V309.46h2l0.2,2.71a6.06,6.06,0,0,1,2.35-2.35A6.71,6.71,0,0,1,662,309h1.17v2.25h-1.52a5.49,5.49,0,0,0-3.69,1.17,4.38,4.38,0,0,0-1.36,3.51v8.13Z"/><path class="cls-5" d="M45.2,475.33v-16.6l1.35-.12v6a0.41,0.41,0,0,1,0,.1,0.68,0.68,0,0,0,0,.12l0,0.33a4.85,4.85,0,0,1,4.19-2q3.9,0,3.9,4.7v7.47H53.26v-7.21a5.27,5.27,0,0,0-.62-2.92,2.48,2.48,0,0,0-2.19-.9,4,4,0,0,0-2.6.82,3.42,3.42,0,0,0-1.28,2.12q0,0.44,0,1.3v6.79H45.2Z"/><path class="cls-5" d="M62.58,475.6a5,5,0,0,1-3.93-1.66,6.57,6.57,0,0,1-1.46-4.5A6.87,6.87,0,0,1,58.61,465a4.69,4.69,0,0,1,3.68-1.8,4.21,4.21,0,0,1,3.38,1.51,6,6,0,0,1,1.28,4c0,0.07,0,.2,0,0.4s0,0.34,0,.42H58.62a5.72,5.72,0,0,0,1.11,3.65,3.52,3.52,0,0,0,2.88,1.35,6.75,6.75,0,0,0,2-.27,10.65,10.65,0,0,0,1.8-.77l0.23,1A7.66,7.66,0,0,1,62.58,475.6Zm-3.91-7.17h6.81a4.75,4.75,0,0,0-.86-3.06,2.88,2.88,0,0,0-2.37-1.06,3,3,0,0,0-2.47,1.13A5.36,5.36,0,0,0,58.67,468.43Z"/><path class="cls-5" d="M69.8,460.93V459.1h1.35v1.83H69.8Zm0,14.4v-12h1.37v12H69.8Z"/><path class="cls-5" d="M76.36,480.89l-0.16-1.21h2.53a6.77,6.77,0,0,0,1.48-.15,4.44,4.44,0,0,0,1.09-.38,2.21,2.21,0,0,0,.75-0.65,4,4,0,0,0,.49-0.83,4.41,4.41,0,0,0,.27-1.07c0.06-.44.1-0.84,0.11-1.21s0-.83,0-1.39q0,0.12,0-.05l-0.05-.75a5.13,5.13,0,0,1-1.63,1.6,4.4,4.4,0,0,1-2.29.56A4.83,4.83,0,0,1,77,475a4.2,4.2,0,0,1-1.44-1,5.78,5.78,0,0,1-.94-1.4,6.77,6.77,0,0,1-.55-1.57,7.52,7.52,0,0,1-.16-1.54,10.19,10.19,0,0,1,.16-1.83,6.82,6.82,0,0,1,.55-1.7,5.25,5.25,0,0,1,1-1.43,4.25,4.25,0,0,1,1.52-1,5.7,5.7,0,0,1,2.09-.36,4.37,4.37,0,0,1,2,.45,4.93,4.93,0,0,1,1.63,1.45L83,463.38h1.2v11.09c0,0.48,0,.87,0,1.16a11.38,11.38,0,0,1-.13,1.2,5.43,5.43,0,0,1-.32,1.24,5.79,5.79,0,0,1-.62,1.07,3.14,3.14,0,0,1-1,.93,6.11,6.11,0,0,1-1.49.58,8.14,8.14,0,0,1-2.07.24H76.36Zm2.76-6.66a3.84,3.84,0,0,0,1.44-.26,3.07,3.07,0,0,0,1.06-.68,3.84,3.84,0,0,0,.71-1,4.49,4.49,0,0,0,.41-1.17,6.4,6.4,0,0,0,.12-1.25v-1.24a6,6,0,0,0-.21-1.6,4.68,4.68,0,0,0-.64-1.39,3,3,0,0,0-1.18-1,3.9,3.9,0,0,0-1.75-.37,3.32,3.32,0,0,0-1.46.31,3,3,0,0,0-1.06.82,4.82,4.82,0,0,0-.7,1.2,6.25,6.25,0,0,0-.4,1.4,9.24,9.24,0,0,0-.11,1.47,7.9,7.9,0,0,0,.1,1.29,5.75,5.75,0,0,0,.37,1.27,4.06,4.06,0,0,0,.68,1.12,3.08,3.08,0,0,0,1.09.77A3.67,3.67,0,0,0,79.12,474.23Z"/><path class="cls-5" d="M87.32,475.33v-16.6l1.35-.12v6a0.41,0.41,0,0,1,0,.1,0.68,0.68,0,0,0,0,.12l0,0.33a4.85,4.85,0,0,1,4.19-2q3.9,0,3.9,4.7v7.47H95.38v-7.21a5.27,5.27,0,0,0-.62-2.92,2.48,2.48,0,0,0-2.19-.9,4,4,0,0,0-2.6.82,3.42,3.42,0,0,0-1.28,2.12q0,0.44,0,1.3v6.79H87.32Z"/><path class="cls-5" d="M103.22,475.59a3.06,3.06,0,0,1-2.2-.68,3,3,0,0,1-.7-2.22v-8.31H98.63l0.1-.82,1.61-.15,0.36-2.74,1-.07v2.78h3.49v1h-3.49v8a2.52,2.52,0,0,0,.41,1.7,2,2,0,0,0,1.46.43,7.17,7.17,0,0,0,1.68-.25l0.05,1A11.28,11.28,0,0,1,103.22,475.59Z"/><polygon class="cls-3" points="355.43 407.9 355.43 406.66 329.98 406.66 329.98 468.73 119.41 468.73 119.41 469.97 329.98 469.97 329.98 532.04 355.43 532.04 355.43 530.8 331.22 530.8 331.22 407.9 355.43 407.9"/><rect class="cls-1" x="242.96" y="468.73" width="62.07" height="1.24"/><path class="cls-5" d="M591.23,831.56l-3.34-12h1.42l2.76,10.68q3-9.58,3.33-10.68h1.66q3.26,10.65,3.3,10.65L603,819.6h1.41l-3.28,12h-1.57s-0.54-1.67-1.54-5-1.59-5.34-1.75-5.92q-0.13.59-1,3.32t-1.66,5.19q-0.8,2.45-.81,2.44h-1.57Z"/><path class="cls-5" d="M606.38,817.16v-1.83h1.35v1.83h-1.35Zm0,14.4v-12h1.37v12h-1.37Z"/><path class="cls-5" d="M615.61,831.81a4.52,4.52,0,0,1-3.73-1.66,7.11,7.11,0,0,1-1.34-4.58,6.91,6.91,0,0,1,1.38-4.47,4.43,4.43,0,0,1,3.64-1.72,5.58,5.58,0,0,1,2.23.48,3.47,3.47,0,0,1,1.69,1.49V815l1.31-.12v16.72h-1.13l-0.2-1.8a4,4,0,0,1-1.69,1.53A4.94,4.94,0,0,1,615.61,831.81Zm0-1.07a4,4,0,0,0,1.78-.37,3.06,3.06,0,0,0,1.22-1,4.9,4.9,0,0,0,.68-1.56,7.88,7.88,0,0,0,.22-1.95q0-5.34-3.93-5.34a3,3,0,0,0-1.64.44,3.17,3.17,0,0,0-1.12,1.19,6.18,6.18,0,0,0-.6,1.63,8.44,8.44,0,0,0-.2,1.85,9.83,9.83,0,0,0,.12,1.58,6.41,6.41,0,0,0,.39,1.4,4.18,4.18,0,0,0,.68,1.14,2.88,2.88,0,0,0,1,.75A3.3,3.3,0,0,0,615.58,830.74Z"/><path class="cls-5" d="M627.37,831.81a3.05,3.05,0,0,1-2.2-.68,3,3,0,0,1-.7-2.22v-8.31h-1.69l0.1-.82,1.61-.15,0.36-2.74,0.95-.07v2.78h3.49v1H625.8v8a2.51,2.51,0,0,0,.41,1.7,2,2,0,0,0,1.46.43,7.17,7.17,0,0,0,1.68-.25l0.06,1A11.31,11.31,0,0,1,627.37,831.81Z"/><path class="cls-5" d="M631.38,831.56V815l1.35-.12v6a0.41,0.41,0,0,1,0,.1,0.68,0.68,0,0,0,0,.12l0,0.33a4.85,4.85,0,0,1,4.19-2q3.9,0,3.9,4.7v7.47h-1.34v-7.21a5.26,5.26,0,0,0-.62-2.92,2.48,2.48,0,0,0-2.19-.9,4,4,0,0,0-2.6.82,3.43,3.43,0,0,0-1.28,2.12q0,0.44,0,1.3v6.79h-1.35Z"/><polygon class="cls-3" points="863.88 570.19 366.08 570.19 366.08 544.75 367.32 544.75 367.32 568.95 862.64 568.95 862.64 544.75 863.88 544.75 863.88 570.19"/><rect class="cls-3" x="614.36" y="569.59" width="1.24" height="211.19"/><rect class="cls-1" x="614.36" y="593.92" width="1.24" height="62.07"/></svg>